<svg t="1610722493341" class="icon" viewBox="0 0 1664 1024" version="1.1" xmlns="http://www.w3.org/2000/svg" p-id="5092" width="36" height="36"><path d="M357.12 571.52h438.4v43.52H599.04v151.68h250.24v44.16H303.36v-44.16h248.96V615.04H357.12v-43.52z m278.4-179.84c67.2 30.72 128.64 68.48 183.68 112.64l-26.24 39.04c-58.88-48.64-119.68-87.04-181.76-115.2l24.32-36.48z m-133.76 4.48l28.8 33.28c-49.92 44.8-112 82.56-186.24 112.64l-19.84-42.24c71.68-26.24 130.56-60.8 177.28-103.68z m76.8-154.88c8.32 19.84 16.64 42.24 24.32 67.2h245.12v128.64h-46.72V351.36H351.36v85.12h-46.72v-128h250.88c-8.32-21.76-17.28-41.6-26.88-59.52l49.92-7.68z m483.84 259.84v328.32h-45.44V508.16a723.2 723.2 0 0 1-78.08 166.4l-19.84-49.92c44.8-61.44 77.44-131.2 97.28-209.92h-84.48v-44.16h85.12V245.76h45.44v124.8h69.76v44.16H1062.4v34.56c26.88 30.72 54.4 64.64 81.92 102.4l-0.64 0.64c56.32-23.04 105.6-49.28 146.56-79.36-27.52-26.24-50.56-53.12-68.48-81.28-16.64 21.76-34.56 42.24-53.12 60.8l-29.44-35.2c46.72-44.16 84.48-101.76 113.92-172.8l44.16 9.6c-6.4 16.64-13.44 32.64-21.12 48h180.48v35.84c-23.04 51.2-56.96 96.64-100.48 136.96 42.88 30.08 94.72 56.32 154.88 78.72l-20.48 42.88c-66.56-28.16-121.6-59.52-166.4-94.72-48.64 37.76-108.16 69.76-177.92 96.64l-17.28-23.04-9.6 14.72c-22.4-37.12-41.6-66.56-56.96-88.96z m392.96 90.88v238.72h-44.8v-28.16h-181.12v28.16h-44.8V592h270.72z m-225.92 167.68h181.12V634.88h-181.12v124.8zM1321.6 448c35.2-30.72 63.36-64.64 84.48-101.76h-154.24c-2.56 3.84-4.48 8.32-7.04 12.16 19.84 32.64 45.44 62.72 76.8 89.6z" fill="#000000" p-id="5093"></path></svg>