<svg t="1618537178979" class="icon" viewBox="0 0 1024 1024" version="1.1" xmlns="http://www.w3.org/2000/svg" p-id="3328" width="16" height="16"><path d="M794.282667 288C921.258667 288 1024 397.952 1024 533.333333s-102.741333 245.333333-229.717333 245.333334c-79.232 0-183.210667-84.608-271.616-187.818667l-10.794667-12.757333-1.792 2.176c-89.173333 104.405333-184.832 186.368-263.253333 197.205333l-8.618667 0.853333-8.490667 0.341334C102.741333 778.666667 0 668.714667 0 533.333333s102.741333-245.333333 229.717333-245.333333c79.232 0 183.210667 84.608 271.616 187.818667l10.752 12.714666 1.877334-2.176c89.429333-104.704 184.661333-186.368 263.125333-197.12l8.661333-0.938666 8.533334-0.298667zM229.717333 346.88c-95.829333 0-173.696 83.370667-173.696 186.453333 0 103.082667 77.866667 186.453333 173.696 186.453334 58.453333 0 158.72-84.010667 242.56-183.04l2.858667-3.456-2.858667-3.413334c-80.981333-95.573333-177.237333-177.152-236.373333-182.656l-6.186667-0.298666z m564.565334 0c-56.618667 0-151.594667 77.994667-233.813334 172.8l-11.605333 13.653333 2.858667 3.413334c80.981333 95.616 177.237333 177.194667 236.373333 182.698666l6.186667 0.298667c95.829333 0 173.696-83.328 173.696-186.410667 0-103.082667-77.866667-186.453333-173.696-186.453333z" fill="#000000" p-id="3329"></path></svg>