<svg t="1605342628403" class="icon" viewBox="0 0 1480 1024" version="1.1" xmlns="http://www.w3.org/2000/svg" p-id="2909" width="18" height="18"><path d="M634.197333 480.597333L327.338667 107.975111h311.296s109.454222-8.305778 149.048889 46.08c39.367111 54.385778 52.451556 138.126222 52.451555 138.126222h39.480889L862.094222 36.864H112.64v37.546667L498.346667 526.791111 112.64 957.895111v41.870222H879.502222l48.241778-284.785777-39.480889-8.305778s-13.084444 62.805333-65.649778 121.400889c-52.679111 58.595556-258.730667 50.176-258.730666 50.176H287.971556l346.225777-397.653334z m375.808 325.745778l-31.288889-22.072889 353.393778-547.612444 31.175111 21.959111-353.28 547.726222z m16.839111-330.410667c-11.377778 0-18.887111-7.850667-18.887111-19.683555V249.856c0-11.719111 7.623111-19.569778 18.887111-19.569778s18.773333 7.850667 18.773334 19.569778v208.440889c0 9.784889-9.443556 17.635556-18.773334 17.635555z" p-id="2910" fill="#000000"></path><path d="M917.617778 332.458667h216.405333c11.377778 0 18.887111 7.964444 18.887111 19.683555 0 11.832889-7.509333 19.683556-18.887111 19.683556H917.617778v-39.367111z m543.857778 347.932444h-216.405334c-11.377778 0-18.773333-7.850667-18.773333-19.683555 0-11.719111 7.509333-19.683556 18.773333-19.683556h216.405334c11.377778 0 18.773333 7.964444 18.773333 19.683556 0 11.832889-7.509333 19.683556-18.773333 19.683555z m-1.934223-104.220444h-216.291555c-11.377778 0-18.887111-7.850667-18.887111-19.569778 0-11.832889 7.509333-19.683556 18.887111-19.683556h216.291555c11.377778 0 18.887111 7.850667 18.887111 19.683556 0 11.719111-7.509333 19.569778-18.887111 19.569778z" p-id="2911" fill="#000000"></path></svg>