<svg t="1618537100502" class="icon" viewBox="0 0 1024 1024" version="1.1" xmlns="http://www.w3.org/2000/svg" p-id="2726" width="32" height="32"><path d="M749.3912085 448.05712784c-18.41268387 31.4213091-66.86509957 70.10105401-123.92659751 70.10105401-34.250744 0-65.26406066-7.38363204-88.67281074-24.22620786l0.03093083 0.47132701a202.04168343 202.04168343 0 0 0-95.01952339-44.46086515l-0.06186167-1.91771174h-2.89129655c-11.06145555 0-22.40276151-0.97358483-34.02980948-0.97358485-11.65797878 0-23.03168848-2.98556196-34.09314402-1.28878476-78.11361302 12.19264036-139.32426147 65.13739154-151.95582511 127.98148263h58.22508647c14.48594079-31.4213091 66.11097635-73.24421595 127.76054809-73.24421596 37.07870601 0 70.32198853 12.34876742 94.26540019 31.67317447 24.76086941 19.13587625 55.27192825 34.18593653 89.39600312 39.96852967 11.97170582 2.01050425 24.32047326 1.9795734 36.9829677 1.9795734 89.80252265 0 164.80685037-31.76743986 183.78659953-126.03284003l-59.79666746-0.03093084z" fill="#000000" p-id="2727"></path></svg>